<svg width="61" height="61" viewBox="0 0 61 61" fill="none" xmlns="http://www.w3.org/2000/svg">
<g clip-path="url(#clip0_0_738)">
<g clip-path="url(#clip1_0_738)">
<g clip-path="url(#clip2_0_738)">
<mask id="mask0_0_738" style="mask-type:luminance" maskUnits="userSpaceOnUse" x="0" y="0" width="60" height="61">
<path d="M59.805 0.919922H0.5V60.225H59.805V0.919922Z" fill="white"/>
</mask>
<g mask="url(#mask0_0_738)">
<path d="M38.2143 5.20581H29.6428L19.3571 15.4915L24.5 18.4915L29.6428 13.3487L40.3571 24.063L44.2143 28.7772L49.7857 29.6344L52.3571 24.9201V8.63438L48.0714 5.20581H38.2143Z" fill="#FDC040"/>
<path d="M55.8668 13.2527H53.548L53.5502 9.10724C53.5516 6.32415 51.2888 4.05868 48.5052 4.05731L30.9063 4.04736H30.9041C29.9023 4.04736 28.9603 4.43739 28.2517 5.14594L1.97819 31.4194C1.02486 32.3728 0.5 33.6401 0.5 34.9885C0.5 36.3369 1.02486 37.6041 1.97819 38.5575L19.0288 55.6081C20.0129 56.5922 21.3055 57.084 22.5977 57.084C23.8905 57.084 25.1831 56.5922 26.1672 55.6081L42.7092 39.0661C43.1617 38.6136 43.1617 37.8801 42.7092 37.4282C42.2567 36.9757 41.5233 36.9757 41.0709 37.4282L24.5289 53.9702C23.4642 55.0348 21.7318 55.0348 20.6671 53.9702L3.61655 36.9196C3.10075 36.4038 2.8166 35.7178 2.8166 34.9885C2.8166 34.2591 3.10075 33.5732 3.61655 33.0573L29.8896 6.78431C30.1607 6.51328 30.5208 6.36396 30.9041 6.36396H30.905L48.5039 6.37392C50.0097 6.37437 51.2345 7.60055 51.2336 9.10633L51.2282 18.8126H46.0109C45.5615 18.8126 45.1547 18.6288 44.8607 18.3329C45.3453 18.1252 45.7996 17.8252 46.1945 17.4303C47.8591 15.7652 47.8591 13.0568 46.1945 11.3922C44.5295 9.72712 41.8211 9.72712 40.156 11.3922C38.4914 13.0568 38.4914 15.7652 40.156 17.4303C40.7731 18.0474 41.5342 18.4352 42.3319 18.5949C42.8988 20.0749 44.3336 21.1292 46.0109 21.1292H51.2268L51.2237 26.6817C51.2237 27.065 51.0743 27.4247 50.8033 27.6952L47.6234 30.8756C47.1709 31.3281 47.1709 32.0615 47.6234 32.514C48.0755 32.966 48.8088 32.966 49.2613 32.514L52.4417 29.3337C53.1493 28.6255 53.5398 27.6844 53.5403 26.6831L53.5434 21.1292H55.8668C58.0382 21.1292 59.805 19.3628 59.805 17.1909C59.805 15.0195 58.0382 13.2527 55.8668 13.2527ZM41.7943 13.0301C42.1753 12.6491 42.6753 12.4591 43.1757 12.4591C43.6757 12.4591 44.1756 12.6495 44.5566 13.0301C44.677 13.1509 44.7765 13.2843 44.8589 13.4251C43.5875 13.8147 42.5885 14.8323 42.2233 16.1145C42.0699 16.029 41.9247 15.9226 41.7943 15.7923C41.0328 15.0304 41.0328 13.7916 41.7943 13.0301ZM55.8668 18.8126H53.5448L53.5466 15.5693H55.8668C56.7609 15.5693 57.4884 16.2969 57.4884 17.1909C57.4884 18.0849 56.7609 18.8126 55.8668 18.8126Z" fill="#3BB77E"/>
<path d="M19.1966 33.2718C19.3391 33.7844 19.8047 34.1197 20.3115 34.1197C20.4147 34.1197 20.5192 34.1061 20.6228 34.0772L32.5135 30.7674C33.1297 30.5959 33.4903 29.9571 33.3189 29.3408C33.1474 28.725 32.509 28.3644 31.8923 28.5358L20.0015 31.8452C19.3858 32.0171 19.0252 32.6555 19.1966 33.2718Z" fill="#3BB77E"/>
<path d="M24.4307 34.8002C23.7854 35.4454 23.4303 36.3028 23.4303 37.2154C23.4303 38.1276 23.7854 38.985 24.4307 39.6303C25.0967 40.2959 25.9709 40.6288 26.8454 40.6288C27.72 40.6288 28.5947 40.2959 29.2607 39.6303C30.5922 38.2986 30.5922 36.1318 29.2607 34.8002C27.9291 33.4686 25.7622 33.4686 24.4307 34.8002ZM27.6223 37.9918C27.1938 38.4203 26.4971 38.4203 26.0686 37.9918C25.8609 37.7847 25.7469 37.5087 25.7469 37.215C25.7469 36.9218 25.8613 36.6458 26.0686 36.4381C26.283 36.2241 26.5644 36.1168 26.8454 36.1168C27.1269 36.1168 27.4083 36.2241 27.6223 36.4381C28.0508 36.8666 28.0508 37.5639 27.6223 37.9918Z" fill="#3BB77E"/>
<path d="M29.8344 27.9039C31.166 26.5719 31.166 24.4054 29.8344 23.0739C29.1892 22.4287 28.3313 22.0735 27.4192 22.0735C26.507 22.0735 25.6492 22.4287 25.0044 23.0739C23.6728 24.4054 23.6728 26.5719 25.0044 27.9039C25.6704 28.5694 26.5446 28.9024 27.4192 28.9024C28.2938 28.9024 29.1684 28.5694 29.8344 27.9039ZM26.6423 24.7118C26.85 24.5041 27.126 24.3901 27.4192 24.3901C27.7128 24.3901 27.9888 24.5041 28.1961 24.7118C28.6246 25.1403 28.6246 25.837 28.1961 26.2655C27.768 26.694 27.0708 26.694 26.6423 26.2655C26.2143 25.837 26.2143 25.1403 26.6423 24.7118Z" fill="#3BB77E"/>
<path d="M12.0204 30.8784C11.568 30.4259 10.8346 30.4259 10.3821 30.8784L7.09087 34.1696C6.87369 34.3868 6.75153 34.6813 6.75153 34.9885C6.75153 35.2958 6.87369 35.5903 7.09087 35.8075L21.7792 50.4958C22.0049 50.7215 22.3018 50.8347 22.5981 50.8347C22.8945 50.8347 23.1908 50.7215 23.4171 50.4958L45.3777 28.5347C45.8302 28.0822 45.8302 27.3487 45.3777 26.8963L30.6899 12.2085C30.4727 11.9913 30.1781 11.8691 29.8709 11.8691C29.5637 11.8691 29.2691 11.9913 29.052 12.2085L16.9346 24.3258C16.4822 24.7783 16.4822 25.5118 16.9346 25.9642C17.3866 26.4162 18.1201 26.4162 18.5725 25.9642L29.8709 14.6658L42.9208 27.7157L22.5981 48.0384L9.54816 34.9885L12.0204 32.5163C12.4725 32.0639 12.4729 31.3308 12.0204 30.8784Z" fill="#3BB77E"/>
<path d="M45.1665 33.8125C44.8615 33.8125 44.5629 33.9364 44.3475 34.1518C44.1321 34.3672 44.0081 34.6663 44.0081 34.9708C44.0081 35.2753 44.1321 35.5744 44.3475 35.7898C44.5629 36.0052 44.8615 36.1291 45.1665 36.1291C45.4709 36.1291 45.7695 36.0052 45.9854 35.7898C46.2008 35.5744 46.3247 35.2753 46.3247 34.9708C46.3247 34.6663 46.2008 34.3672 45.9854 34.1518C45.7695 33.9364 45.4709 33.8125 45.1665 33.8125Z" fill="#3BB77E"/>
<path d="M15.2958 29.2395C15.5126 29.0242 15.6357 28.7264 15.6357 28.4205C15.6357 28.116 15.5126 27.8183 15.2958 27.6015C15.0805 27.3862 14.7827 27.2622 14.4773 27.2622C14.1724 27.2622 13.8737 27.3862 13.6584 27.6015C13.4426 27.8169 13.3191 28.116 13.3191 28.4205C13.3191 28.7264 13.4426 29.0242 13.6584 29.2395C13.8747 29.4562 14.1724 29.5788 14.4773 29.5788C14.7827 29.5788 15.0805 29.4562 15.2958 29.2395Z" fill="#3BB77E"/>
</g>
</g>
</g>
</g>
<defs>
<clipPath id="clip0_0_738">
<rect width="60" height="60" fill="white" transform="translate(0.5 0.919922)"/>
</clipPath>
<clipPath id="clip1_0_738">
<rect width="60" height="60" fill="white" transform="translate(0.5 0.919922)"/>
</clipPath>
<clipPath id="clip2_0_738">
<rect width="60" height="60" fill="white" transform="translate(0.5 0.919922)"/>
</clipPath>
</defs>
</svg>
