<svg width="61" height="61" viewBox="0 0 61 61" fill="none" xmlns="http://www.w3.org/2000/svg">
<g clip-path="url(#clip0_0_794)">
<g clip-path="url(#clip1_0_794)">
<g clip-path="url(#clip2_0_794)">
<mask id="mask0_0_794" style="mask-type:luminance" maskUnits="userSpaceOnUse" x="0" y="0" width="61" height="61">
<path d="M60.2916 0.919922H0.986542V60.225H60.2916V0.919922Z" fill="white"/>
</mask>
<g mask="url(#mask0_0_794)">
<path d="M44.5168 56.8659C43.9162 56.8659 43.4224 57.3228 43.3641 57.9081H34.6476L33.2724 49.6275L34.8009 48.0991C35.0181 47.8819 35.1402 47.5872 35.1402 47.2801C35.1402 46.9729 35.0181 46.6783 34.8009 46.461L33.4485 45.1086H35.7594C38.2956 45.1086 40.6557 46.3674 42.0722 48.476C42.429 49.007 43.1487 49.1482 43.6795 48.7916C44.2105 48.4348 44.3518 47.7151 43.995 47.184C42.162 44.4556 39.1169 42.8188 35.8374 42.7931C36.9594 41.5505 37.6439 39.9055 37.6439 38.1034V36.4046C37.6439 32.5419 34.5014 29.3994 30.6387 29.3994C26.776 29.3994 23.6335 32.5419 23.6335 36.4046V38.1034C23.6335 39.906 24.3182 41.5512 25.4406 42.794C20.0088 42.8359 15.6025 47.266 15.6025 52.7075V59.0663C15.6025 59.706 16.1211 60.2247 16.7609 60.2247H44.5165C45.1563 60.2247 45.6749 59.706 45.6749 59.0663V58.0241C45.675 57.3845 45.1565 56.8659 44.5168 56.8659ZM30.6522 48.9717L28.9606 47.2801L30.6522 45.5885L32.344 47.2801L30.6522 48.9717ZM30.0527 51.5995C30.2365 51.7109 30.4441 51.768 30.6522 51.768C30.8602 51.768 31.0679 51.711 31.2516 51.5995L32.2992 57.9081H29.005L30.0527 51.5995ZM25.9504 36.4046C25.9504 33.8194 28.0536 31.716 30.639 31.716C33.2243 31.716 35.3275 33.8192 35.3275 36.4046V38.1034C35.3275 40.6887 33.2243 42.792 30.639 42.792C28.0536 42.792 25.9504 40.6888 25.9504 38.1034V36.4046ZM17.9194 52.7075C17.9194 48.5174 21.3282 45.1086 25.5183 45.1086H27.8557L26.5033 46.461C26.2861 46.6783 26.1641 46.9729 26.1641 47.2801C26.1641 47.5872 26.2861 47.8819 26.5033 48.0991L28.0318 49.6275L26.6567 57.9081H17.9193L17.9194 52.7075Z" fill="#3BB77E"/>
<path d="M24.5 2.20557C24.8429 2.20557 32.6429 2.49128 36.5 2.63414V15.0627L24.5 14.6341V2.20557Z" fill="#FDC040"/>
<path d="M51.9286 2.63403L45.9286 13.7769H58.7857L52.7857 3.0626L51.9286 2.63403Z" fill="#FDC040"/>
<path d="M24.5 2.20557C24.8429 2.20557 32.6429 2.49128 36.5 2.63414V15.0627L24.5 14.6341V2.20557Z" stroke="black" stroke-width="0.857143" stroke-linecap="round" stroke-linejoin="round"/>
<path d="M51.9286 2.63403L45.9286 13.7769H58.7857L52.7857 3.0626L51.9286 2.63403Z" stroke="black" stroke-width="0.857143" stroke-linecap="round" stroke-linejoin="round"/>
<path d="M15.7995 8.32731C15.7995 4.24337 12.4769 0.920898 8.39306 0.920898C4.30924 0.920898 0.986542 4.24349 0.986542 8.32731C0.986542 12.4111 4.30913 15.7338 8.39295 15.7338C12.4768 15.7338 15.7995 12.4112 15.7995 8.32731ZM3.30314 8.32731C3.30314 5.52086 5.58638 3.2375 8.39295 3.2375C11.1995 3.2375 13.4827 5.52086 13.4827 8.32731C13.4827 11.1337 11.1995 13.4172 8.39295 13.4172C5.58638 13.4172 3.30314 11.1339 3.30314 8.32731Z" fill="#3BB77E"/>
<path d="M24.391 15.7329H36.8873C37.527 15.7329 38.0456 15.2141 38.0456 14.5745V2.07822C38.0456 1.43861 37.527 0.919922 36.8873 0.919922H24.391C23.7513 0.919922 23.2327 1.43861 23.2327 2.07822V14.5745C23.2327 15.2141 23.7513 15.7329 24.391 15.7329ZM25.5493 3.23653H35.729V13.4163H25.5493V3.23653Z" fill="#3BB77E"/>
<path d="M60.1364 13.5351L53.4528 1.95903C53.246 1.60066 52.8636 1.37988 52.4498 1.37988C52.0359 1.37988 51.6535 1.60066 51.4467 1.95903L44.7631 13.5351C44.5562 13.8935 44.5562 14.335 44.7631 14.6934C44.97 15.0518 45.3524 15.2726 45.7662 15.2726H59.1333C59.5471 15.2726 59.9295 15.0518 60.1364 14.6934C60.3433 14.335 60.3433 13.8935 60.1364 13.5351ZM47.7725 12.956L52.4496 4.85479L57.1269 12.956H47.7725Z" fill="#3BB77E"/>
<path d="M30.639 27.1256C31.2788 27.1256 31.7974 26.6068 31.7974 25.9672V22.6623L31.8443 22.7278C32.0705 23.0438 32.4261 23.2121 32.7872 23.2121C33.0205 23.2121 33.2561 23.1418 33.4604 22.9956C33.9806 22.6234 34.1005 21.8998 33.7283 21.3796L31.5811 18.3793C31.3636 18.0754 31.0128 17.895 30.6392 17.895C30.2655 17.895 29.9147 18.0754 29.6972 18.3793L27.5501 21.3796C27.1778 21.8998 27.2977 22.6234 27.8179 22.9956C28.3381 23.3679 29.0615 23.2481 29.434 22.7278L29.4808 22.6623V25.9672C29.4808 26.607 29.9993 27.1256 30.639 27.1256Z" fill="#3BB77E"/>
<path d="M21.1023 36.5067C21.1023 35.867 20.5837 35.3483 19.944 35.3483H9.55787V22.6623L9.60484 22.7278C9.83104 23.0438 10.1866 23.2121 10.5478 23.2121C10.781 23.2121 11.0166 23.1418 11.221 22.9956C11.7412 22.6234 11.861 21.8998 11.4888 21.3796L9.34161 18.3793C9.12407 18.0754 8.77337 17.895 8.3997 17.895C8.02603 17.895 7.6753 18.0754 7.45777 18.3793L5.31063 21.3796C4.93835 21.8998 5.05823 22.6234 5.57843 22.9956C6.09851 23.3679 6.8221 23.2481 7.19449 22.7278L7.24128 22.6623V36.5067C7.24128 37.1463 7.75986 37.6649 8.39958 37.6649H19.944C20.5836 37.6649 21.1023 37.1464 21.1023 36.5067Z" fill="#3BB77E"/>
<path d="M53.8204 18.3793C53.6028 18.0754 53.2521 17.895 52.8785 17.895C52.5048 17.895 52.1541 18.0754 51.9365 18.3793L49.7894 21.3796C49.4171 21.8998 49.537 22.6234 50.0572 22.9956C50.5774 23.3679 51.301 23.2481 51.6732 22.7278L51.7201 22.6624V35.3484H41.334C40.6943 35.3484 40.1757 35.8672 40.1757 36.5068C40.1757 37.1464 40.6943 37.665 41.334 37.665H52.8785C53.5181 37.665 54.0367 37.1464 54.0367 36.5068V22.6624L54.0837 22.7278C54.3099 23.0439 54.6655 23.2122 55.0266 23.2122C55.2599 23.2122 55.4955 23.1419 55.6998 22.9957C56.22 22.6234 56.3399 21.9 55.9677 21.3798L53.8204 18.3793Z" fill="#3BB77E"/>
<path d="M44.5165 53.9704C45.1562 53.9704 45.6748 53.4518 45.6748 52.8122C45.6748 52.1725 45.1562 51.6538 44.5165 51.6538C43.8768 51.6538 43.3582 52.1725 43.3582 52.8122C43.3582 53.4518 43.8768 53.9704 44.5165 53.9704Z" fill="#3BB77E"/>
</g>
</g>
</g>
</g>
<defs>
<clipPath id="clip0_0_794">
<rect width="60" height="60" fill="white" transform="translate(0.5 0.919922)"/>
</clipPath>
<clipPath id="clip1_0_794">
<rect width="60" height="60" fill="white" transform="translate(0.5 0.919922)"/>
</clipPath>
<clipPath id="clip2_0_794">
<rect width="60" height="60" fill="white" transform="translate(0.5 0.919922)"/>
</clipPath>
</defs>
</svg>
