<svg width="61" height="61" viewBox="0 0 61 61" fill="none" xmlns="http://www.w3.org/2000/svg">
<g clip-path="url(#clip0_0_758)">
<g clip-path="url(#clip1_0_758)">
<g clip-path="url(#clip2_0_758)">
<mask id="mask0_0_758" style="mask-type:luminance" maskUnits="userSpaceOnUse" x="0" y="0" width="60" height="61">
<path d="M59.9672 0.919922H0.66217V60.225H59.9672V0.919922Z" fill="white"/>
</mask>
<g mask="url(#mask0_0_758)">
<path d="M38.6429 29.2056L41.6429 24.4914L45.9286 22.3485C46.5 22.2056 47.7286 22.0056 48.0714 22.3485C48.4143 22.6914 53.3572 29.3485 55.7857 32.6342L57.9286 36.4914C57.5 37.3485 56.5571 39.1485 56.2143 39.4914C55.8714 39.8342 52.6428 41.3485 51.0714 42.0628C50.2143 42.2057 48.4143 42.4914 48.0714 42.4914C47.7286 42.4914 43.6428 37.0628 41.6429 34.3485L39.3929 30.4914L38.6429 29.2056Z" fill="#FDC040"/>
<path d="M48.0714 42.4915C47.7286 42.4915 43.6428 37.0629 41.6428 34.3486L39.3928 30.4915H37.7857H33.5C33.0714 30.4915 30.9286 31.3486 30.0714 31.7772L27.5 33.0629C26.6428 33.4915 25.7857 34.3486 25.3571 34.7772C24.9286 35.2057 24.0714 36.4915 24.0714 36.92C24.0714 37.3486 24.0714 38.2057 24.5 38.6343C24.9286 39.0629 25.7857 39.4915 26.2143 39.4915H28.7857C29.4714 39.4915 31.3571 38.6343 32.2143 38.2057C32.5 38.3486 33.1571 38.72 33.5 39.0629C33.8428 39.4057 36.7857 41.4914 38.2143 42.4915L41.6428 45.92C42.2143 46.2057 43.4428 46.6915 43.7857 46.3486C44.1286 46.0057 45.3571 45.0629 45.9286 44.6343L47.2143 43.7772L48.0714 42.4915Z" fill="#FDC040"/>
<path d="M13.7857 47.2056C13.7857 47.8913 14.9285 49.2055 15.5 49.777L18.5 52.3484L20.2143 53.6341L21.9286 55.3484C22.5 55.6341 23.6428 56.2913 23.6428 56.6341C23.6428 56.977 25.3571 57.3484 26.2143 57.4913C26.6428 57.2056 27.5857 56.5484 27.9286 56.2056C28.3571 55.777 28.3571 55.777 28.3571 54.9199C28.3571 54.0627 28.3571 53.2056 27.9286 52.3484C27.5 51.4913 27.5 49.777 27.0714 49.3484C26.6428 48.9199 24.9286 48.0627 24.9286 47.6341C24.9286 47.2056 23.6428 45.4913 23.2143 45.0627C22.7857 44.6341 21.9286 42.9199 21.5 42.4913C21.0714 42.0627 19.7857 41.2056 18.9286 41.6341C18.0714 42.0627 15.5 44.2056 15.0714 44.6341C14.7286 44.977 14.0714 46.4913 13.7857 47.2056Z" fill="#FDC040"/>
<path d="M21.9286 5.20557C24.5 8.777 31.8714 15.7484 40.7857 15.0627L39.0714 20.2056L36.5 22.3484L28.3571 24.9199L21.9286 22.777L18.0714 15.9199L18.5 10.3484L20.6428 6.49128L21.9286 5.20557Z" fill="#FDC040"/>
<path d="M29.356 16.327C28.9035 16.327 28.3486 16.2608 27.9688 15.8375C27.8367 15.6888 27.721 15.5498 27.6088 15.434C26.7038 14.4816 25.1449 15.8045 26.0895 17.0411L26.3174 17.3353C26.4659 17.5207 26.7335 17.7355 27.1166 17.9803C27.4899 18.2182 27.9059 18.3902 28.3684 18.4927V20.1264C28.3684 20.6886 28.8273 21.1515 29.389 21.1515C29.9537 21.1515 30.4325 20.6886 30.4325 20.1264V18.4829C31.1724 18.3111 31.8065 17.9505 32.325 17.405C32.8467 16.8592 33.1077 16.1352 33.1077 15.2323C33.1077 14.6173 32.989 14.1048 32.751 13.6914C32.5132 13.2813 32.2226 12.9937 31.8758 12.8316C31.5257 12.6695 31.1459 12.5273 30.7264 12.405C30.3104 12.2827 29.9306 12.1967 29.5804 12.1439C29.2337 12.0941 28.9431 11.9882 28.7052 11.833C28.4674 11.6741 28.3486 11.4691 28.3486 11.2145C28.3486 9.99767 30.132 10.1464 30.9179 10.8078C32.0772 11.7833 33.3751 9.99767 32.0309 8.9891L31.8757 8.85011C31.7699 8.76763 31.585 8.66501 31.3175 8.53597C31.0533 8.40717 30.7559 8.31114 30.4324 8.24165V7.25304V6.8232C30.4324 6.26095 29.9733 5.7981 29.4086 5.7981C28.8471 5.7981 28.3848 6.26084 28.3848 6.8232V8.2252C27.6316 8.37404 27.0075 8.74782 26.575 9.29988C26.139 9.86215 25.9177 10.4839 25.9177 11.178C25.9177 11.8759 26.0797 12.448 26.4032 12.9011C26.7268 13.3538 27.1199 13.6714 27.5856 13.8566C28.048 14.0418 28.5102 14.1907 28.9726 14.2997C29.4382 14.4123 29.8314 14.5344 30.1549 14.6767C30.4786 14.8156 30.6405 15.0108 30.6405 15.2653C30.6406 15.973 30.2113 16.327 29.356 16.327Z" fill="#3BB77E"/>
<path d="M58.7428 34.3773L49.2252 22.1864C48.5842 21.3632 47.6122 20.8909 46.5587 20.8909C45.8152 20.8909 45.1113 21.1269 44.5205 21.5751L38.2918 26.3232C37.5789 26.8665 37.1234 27.6551 37.0092 28.5435C36.9922 28.676 36.9841 28.808 36.9827 28.9394C34.6082 28.7594 32.1556 28.9403 29.7737 30.4885L29.6669 30.5578L23.6416 29.6364C23.654 29.4278 23.6473 29.2166 23.6198 29.0048C23.5049 28.1185 23.0502 27.3317 22.3386 26.7892L16.1084 22.0454C14.6487 20.9292 12.5381 21.2004 11.4031 22.6515L9.13424 25.5583C8.73716 26.0667 8.82774 26.8008 9.33627 27.1976C9.84482 27.5947 10.5789 27.5041 10.9758 26.9956L13.244 24.0899C13.5874 23.6509 14.2492 23.5645 14.6912 23.9026L20.9229 28.6474C21.1339 28.8083 21.2689 29.0419 21.303 29.3053C21.3371 29.569 21.2659 29.8301 21.1033 30.0389L11.584 42.2318C11.2429 42.6698 10.5802 42.7553 10.1389 42.4207L3.90994 37.6721C3.69774 37.5104 3.5621 37.276 3.52816 37.0123C3.49446 36.7497 3.5657 36.4904 3.72959 36.281L5.34797 34.2078C5.74492 33.6992 5.65446 32.9653 5.14585 32.5684C4.63736 32.1712 3.90334 32.2619 3.50627 32.7704L1.88882 34.8425C1.33782 35.5469 1.09712 36.4232 1.2111 37.31C1.32519 38.1982 1.78087 38.9868 2.49368 39.53L8.72465 44.2802C9.33104 44.7402 10.0477 44.9627 10.7596 44.9626C11.1714 44.9626 11.5811 44.8869 11.9674 44.741L12.7738 45.8455C12.3355 46.645 12.2672 47.6055 12.6195 48.5324C13.123 49.8578 14.311 50.7564 15.5964 50.7992C15.6363 50.988 15.6915 51.1766 15.7669 51.3635C16.285 52.6472 17.4681 53.521 18.7393 53.5785C18.7451 53.6119 18.7495 53.6453 18.7564 53.6787C18.9982 54.8541 19.9 55.8579 21.0535 56.2361C21.3473 56.3324 21.6436 56.3819 21.937 56.3906C22.0494 56.8639 22.2843 57.321 22.6454 57.7222C23.2082 58.3478 24.0298 58.7481 24.9312 58.748C25.5858 58.748 26.2825 58.5356 26.9522 58.046L28.2748 59.2825C28.9486 59.9112 29.7967 60.2251 30.6367 60.2251C31.4888 60.225 32.3322 59.902 32.9764 59.2573C33.3604 58.8728 33.658 58.4155 33.8506 57.9339C34.1788 58.0337 34.4994 58.0809 34.807 58.0809C35.6734 58.0808 36.4378 57.715 36.9856 57.1508C37.4338 56.6893 37.7546 56.0748 37.8964 55.4198C37.9438 55.4222 37.9912 55.4241 38.0388 55.4246C38.0506 55.4247 38.062 55.4247 38.0737 55.4247C38.995 55.4247 39.879 55.0678 40.5034 54.4426C40.9408 54.0048 41.2416 53.4658 41.3853 52.8774C41.6081 52.9208 41.8319 52.9436 42.0552 52.9436C42.3364 52.9436 42.6168 52.9087 42.8931 52.8379C44.0194 52.5493 44.8893 51.6689 45.163 50.5404C45.4156 49.499 45.1553 48.4021 44.4468 47.405C46.2813 45.929 47.0233 45.202 47.8613 43.8426C48.4337 44.2637 49.1306 44.4956 49.867 44.4956C50.6128 44.4956 51.318 44.2579 51.9044 43.8095L58.1371 39.0639C58.8481 38.522 59.3029 37.7354 59.4178 36.8489C59.5327 35.9617 59.2934 35.0842 58.7428 34.3773ZM16.2075 48.2234C16.0286 48.3851 15.855 48.4671 15.6916 48.4671C15.3562 48.4671 14.9661 48.1316 14.8032 47.7029C14.6554 47.3136 14.7243 46.9883 15.0088 46.7357L15.0125 46.7324L15.016 46.7294L18.9513 43.2315C19.2805 42.9395 19.6118 42.7851 19.9096 42.7851C20.3453 42.7851 20.6711 43.116 20.7894 43.4237C20.9159 43.7522 20.8398 44.0455 20.5646 44.2944L19.8786 44.913L19.8768 44.9146C19.8734 44.9175 19.8702 44.9205 19.8668 44.9235C19.8423 44.9458 19.8169 44.9687 19.7919 44.9913L16.2075 48.2234ZM19.3883 51.0153C19.211 51.172 19.042 51.248 18.872 51.248C18.5174 51.248 18.1052 50.9148 17.9334 50.489C17.7441 50.0202 17.9687 49.8037 18.0397 49.7351C18.0854 49.6914 18.1402 49.6388 18.1972 49.5777L18.1983 49.5768L18.2104 49.5662C18.435 49.3654 20.4137 47.5776 21.3592 46.7234L21.4296 46.6598C21.75 46.3786 22.0745 46.23 22.3686 46.23C22.8324 46.23 23.1777 46.5849 23.3022 46.9146C23.4261 47.2424 23.3518 47.5292 23.0824 47.7665L22.84 47.9796C22.8382 47.9812 22.8364 47.9825 22.8347 47.9841L22.833 47.9858L19.3883 51.0153ZM22.87 53.5365C22.8538 53.551 22.8387 53.5662 22.8231 53.5809L22.549 53.8282C22.3054 54.0483 22.0614 54.1083 21.7811 54.0164C21.4268 53.9001 21.1174 53.5602 21.0448 53.2081C20.9818 52.9019 21.1043 52.6182 21.4155 52.3439L21.8052 52.0034C21.8151 51.9948 21.8236 51.9854 21.8331 51.9765L24.3862 49.7312C24.998 49.1904 25.6039 49.1362 26.0072 49.5871C26.0639 49.6506 26.5449 50.2223 25.9577 50.7527L24.3898 52.1676C24.373 52.1824 24.3559 52.1957 24.3393 52.2109C24.3334 52.2164 24.3285 52.2226 24.3226 52.2279L22.8879 53.5226C22.8821 53.5275 22.8756 53.5314 22.87 53.5365ZM24.3822 56.1596C24.2591 56.023 24.0216 55.6687 24.4112 55.2945L25.9754 53.8832C26.0938 53.7819 26.2078 53.7016 26.3146 53.6465C26.3194 53.6439 26.3245 53.6414 26.3293 53.6389C26.9598 53.3021 27.3015 53.6947 27.3914 53.8229C27.5068 53.9878 27.6477 54.3118 27.2936 54.6299L26.222 55.5932C26.2179 55.5968 26.2139 55.6004 26.2099 55.604L25.7453 56.0216C24.9819 56.7068 24.5089 56.3007 24.3822 56.1596ZM42.8926 49.9898C42.8207 50.2856 42.6096 50.4989 42.3132 50.5749C41.8218 50.7007 41.1999 50.4278 40.6304 49.8435C40.5877 49.7963 40.5439 49.7498 40.4981 49.7047L36.089 45.3462C35.63 44.8928 34.8904 44.897 34.437 45.3559C33.9835 45.8146 33.9877 46.5542 34.4464 47.0077L38.8486 51.359C38.8559 51.3668 38.8634 51.3745 38.8706 51.3823C39.0465 51.5631 39.1443 51.8048 39.1454 52.0664C39.1464 52.3426 39.0417 52.6002 38.8504 52.7918C38.6616 52.9808 38.3794 53.0887 38.0743 53.0887C38.07 53.0887 38.0658 53.0887 38.0615 53.0885C37.7914 53.086 37.5449 52.9955 37.3714 52.8376C37.2983 52.7432 37.2188 52.6515 37.1313 52.5637L33.9079 49.3364C33.452 48.8801 32.7124 48.8796 32.2559 49.3353C31.7995 49.7912 31.7991 50.5307 32.2548 50.9871L35.3117 54.0478C35.3486 54.1017 35.3895 54.1537 35.4364 54.2023L35.5666 54.3364C35.7341 54.6555 35.6302 55.1931 35.3094 55.5237C34.8143 56.0336 34.1176 55.5841 33.6212 55.1179L32.2408 53.8184C31.771 53.3762 31.0317 53.3985 30.5896 53.8682C30.1474 54.338 30.1696 55.0772 30.6394 55.5194L31.6939 56.512C31.6965 56.5144 31.6985 56.5171 31.7011 56.5194C31.7252 56.5419 31.7614 56.576 31.7632 56.6937C31.7678 56.9675 31.587 57.3428 31.3237 57.6064C30.9394 57.991 30.3004 57.9773 29.8696 57.5752L28.7136 56.4948L28.8549 56.3677C30.0011 55.3384 30.1861 53.741 29.3048 52.4828C29.018 52.0734 28.6588 51.7553 28.2558 51.5346C28.8238 50.4144 28.665 49.0543 27.7482 48.0296C27.2311 47.4513 26.5006 47.0564 25.6851 46.969C25.6618 46.676 25.5976 46.3806 25.4877 46.0894C25.0909 45.0388 24.2088 44.2655 23.1707 43.9977C23.2139 43.5323 23.1496 43.0519 22.9699 42.5845C22.4782 41.3072 21.2486 40.4489 19.9096 40.4489C19.0317 40.4489 18.1643 40.8068 17.4004 41.4844L14.418 44.1353L13.7625 43.2375L22.6543 31.8487L26.7196 32.4704L26.1046 32.8694C22.8104 35.0067 22.5693 37.4924 23.4422 39.106C24.1408 40.3976 25.535 41.1359 27.0149 41.1359C27.6242 41.1358 28.2483 41.0107 28.844 40.7474C28.8598 40.7403 28.8754 40.7331 28.8907 40.7255L31.9704 39.1985L33.7482 40.8173C33.75 40.8188 33.7518 40.82 33.7534 40.8216C33.7552 40.8231 33.7566 40.8248 33.7583 40.8264L41.9756 48.1344C42.6796 48.7604 43.0225 49.454 42.8926 49.9898ZM42.7943 45.7364L35.3159 39.0854L32.953 36.9339C32.5972 36.6098 32.0788 36.5371 31.6477 36.751L27.8781 38.6202C26.854 39.0607 25.8466 38.6415 25.4968 37.9948C25.0161 37.1062 25.7361 35.8932 27.376 34.8294L31.0461 32.4478C33.036 31.1542 35.1235 31.0544 37.9791 31.3858L46.2476 41.9804C45.375 43.5474 44.9116 44.0448 42.7943 45.7364ZM57.101 36.5486C57.067 36.8116 56.9319 37.0451 56.7213 37.2056L50.4871 41.9522C50.2632 42.1236 50.0265 42.1595 49.8673 42.1595C49.5396 42.1594 49.2388 42.0152 49.0428 41.7645L39.5268 29.5716C39.3637 29.363 39.2925 29.1037 39.3262 28.8412C39.3602 28.5774 39.4957 28.3428 39.708 28.181L45.9348 23.4344C46.1608 23.2631 46.3986 23.2271 46.5586 23.2271C46.8866 23.2271 47.1867 23.3708 47.3829 23.6228L56.9004 35.8137C57.064 36.0239 57.1353 36.2847 57.101 36.5486Z" fill="#3BB77E"/>
<path d="M23.4609 24.6492C25.2948 25.6388 27.3664 26.1618 29.4519 26.1618C36.4041 26.1618 42.0604 20.4993 42.0604 13.5391C42.0604 8.68147 39.2245 4.20185 34.8365 2.12698C33.1461 1.32602 31.3345 0.919922 29.4519 0.919922C22.5011 0.919922 16.8464 6.58089 16.8464 13.5391C16.8464 18.18 19.3802 22.4368 23.4609 24.6492ZM29.4519 3.25599C30.9857 3.25599 32.4609 3.58645 33.837 4.23834C37.4133 5.92935 39.7242 9.58024 39.7242 13.5391C39.7242 19.2113 35.116 23.8258 29.4519 23.8258C27.7525 23.8258 26.0645 23.3995 24.5724 22.5945C21.2478 20.7918 19.1825 17.322 19.1825 13.5391C19.1825 7.86904 23.7892 3.25599 29.4519 3.25599Z" fill="#3BB77E"/>
<path d="M6.5124 30.7942C6.72749 30.9659 6.98476 31.0493 7.24027 31.0493C7.58337 31.0493 7.92333 30.8988 8.15394 30.6097L8.16715 30.5931C8.56955 30.0889 8.48695 29.354 7.98275 28.9516C7.47854 28.5494 6.74348 28.6316 6.34121 29.1361L6.328 29.1527C5.9256 29.6569 6.00819 30.3918 6.5124 30.7942Z" fill="#3BB77E"/>
</g>
</g>
</g>
</g>
<defs>
<clipPath id="clip0_0_758">
<rect width="60" height="60" fill="white" transform="translate(0.5 0.919922)"/>
</clipPath>
<clipPath id="clip1_0_758">
<rect width="60" height="60" fill="white" transform="translate(0.5 0.919922)"/>
</clipPath>
<clipPath id="clip2_0_758">
<rect width="60" height="60" fill="white" transform="translate(0.5 0.919922)"/>
</clipPath>
</defs>
</svg>
