<svg width="61" height="61" viewBox="0 0 61 61" fill="none" xmlns="http://www.w3.org/2000/svg">
<g clip-path="url(#clip0_0_778)">
<g clip-path="url(#clip1_0_778)">
<g clip-path="url(#clip2_0_778)">
<mask id="mask0_0_778" style="mask-type:luminance" maskUnits="userSpaceOnUse" x="0" y="0" width="61" height="61">
<path d="M60.1294 0.919922H0.824356V60.225H60.1294V0.919922Z" fill="white"/>
</mask>
<g mask="url(#mask0_0_778)">
<path d="M40.7857 58.3486C49.3067 58.3486 56.2143 51.441 56.2143 42.92C56.2143 34.3991 49.3067 27.4915 40.7857 27.4915C32.2647 27.4915 25.3571 34.3991 25.3571 42.92C25.3571 51.441 32.2647 58.3486 40.7857 58.3486Z" fill="#FDC040"/>
<path d="M43.9068 26.5926V15.3693C43.9068 15.048 43.7585 14.7512 43.5485 14.5164L30.9656 1.30316C30.7307 1.05611 30.3968 0.919922 30.0634 0.919922H10.1135C6.43039 0.919922 3.48849 3.92336 3.48849 7.60685V45.3308C3.48849 49.0143 6.43039 51.9684 10.1135 51.9684H25.8609C28.8395 56.9125 34.2536 60.225 40.4211 60.225C49.7903 60.225 57.4414 52.611 57.4414 43.2296C57.4541 35.0346 51.5702 28.1871 43.9068 26.5926ZM31.2995 5.25857L39.7415 14.1454H34.2659C32.6343 14.1454 31.2995 12.7984 31.2995 11.1668V5.25857ZM10.1135 49.4962C7.80226 49.4962 5.96074 47.642 5.96074 45.3308V7.60685C5.96074 5.28301 7.80226 3.39217 10.1135 3.39217H28.8272V11.1668C28.8272 14.1702 31.2623 16.6176 34.2659 16.6176H41.4347V26.2709C41.064 26.2587 40.7672 26.2216 40.446 26.2216C36.1322 26.2216 32.1646 27.878 29.1734 30.4738H13.4757C12.7956 30.4738 12.2395 31.0299 12.2395 31.7094C12.2395 32.3895 12.7956 32.9456 13.4757 32.9456H26.8744C25.9967 34.1817 25.2672 35.4179 24.6989 36.7775H13.4757C12.7956 36.7775 12.2395 37.3336 12.2395 38.0136C12.2395 38.6932 12.7956 39.2497 13.4757 39.2497H23.8954C23.5864 40.4859 23.4257 41.8578 23.4257 43.2296C23.4257 45.4543 23.8583 47.6547 24.637 49.5089H10.1135V49.4962ZM40.4338 57.7654C32.4243 57.7654 25.9103 51.2513 25.9103 43.2418C25.9103 35.2324 32.4116 28.7183 40.4338 28.7183C48.4554 28.7183 54.9569 35.2324 54.9569 43.2418C54.9569 51.2513 48.4433 57.7654 40.4338 57.7654Z" fill="#3BB77E"/>
<path d="M13.4758 26.7533H25.9967C26.6768 26.7533 27.2329 26.1967 27.2329 25.5172C27.2329 24.8371 26.6768 24.281 25.9967 24.281H13.4758C12.7957 24.281 12.2397 24.8371 12.2397 25.5172C12.2397 26.1967 12.7957 26.7533 13.4758 26.7533Z" fill="#3BB77E"/>
<path d="M40.0256 35.6155C40.1247 35.6399 40.2233 35.6526 40.3224 35.6526C40.4459 35.6526 40.5573 35.6399 40.6685 35.6028C42.3001 35.739 43.5734 37.0987 43.5734 38.7551C43.5734 39.4347 44.1294 39.9908 44.8091 39.9908C45.4891 39.9908 46.0451 39.4347 46.0451 38.7551C46.0451 36.0358 44.1173 33.7613 41.5585 33.2297V32.4387C41.5585 31.7587 41.0021 31.2026 40.3224 31.2026C39.6424 31.2026 39.0863 31.7587 39.0863 32.4387V33.2794C36.6141 33.8726 34.7725 36.11 34.7725 38.7551C34.7725 41.8699 37.3063 44.3914 40.4088 44.3914C42.1517 44.3914 43.5734 45.8126 43.5734 47.5555C43.5734 49.2984 42.1639 50.7322 40.4088 50.7322C38.666 50.7322 37.2448 49.3106 37.2448 47.5677C37.2448 46.8881 36.6882 46.3316 36.0087 46.3316C35.3286 46.3316 34.7725 46.8881 34.7725 47.5677C34.7725 50.2255 36.6141 52.4502 39.0863 53.0434V54.3166C39.0863 54.9967 39.6424 55.5528 40.3224 55.5528C41.0021 55.5528 41.5585 54.9967 41.5585 54.3166V53.0805C44.1173 52.5488 46.0451 50.2748 46.0451 47.5555C46.0451 44.4408 43.5113 41.9192 40.4088 41.9192C38.666 41.9192 37.2448 40.4976 37.2448 38.7551C37.2448 37.148 38.456 35.801 40.0256 35.6155Z" fill="#3BB77E"/>
</g>
</g>
</g>
</g>
<defs>
<clipPath id="clip0_0_778">
<rect width="60" height="60" fill="white" transform="translate(0.5 0.919922)"/>
</clipPath>
<clipPath id="clip1_0_778">
<rect width="60" height="60" fill="white" transform="translate(0.5 0.919922)"/>
</clipPath>
<clipPath id="clip2_0_778">
<rect width="60" height="60" fill="white" transform="translate(0.5 0.919922)"/>
</clipPath>
</defs>
</svg>
