<svg width="61" height="61" viewBox="0 0 61 61" fill="none" xmlns="http://www.w3.org/2000/svg">
<g clip-path="url(#clip0_0_818)">
<g clip-path="url(#clip1_0_818)">
<g clip-path="url(#clip2_0_818)">
<mask id="mask0_0_818" style="mask-type:luminance" maskUnits="userSpaceOnUse" x="1" y="0" width="60" height="61">
<path d="M60.338 0.919922H1.14874V60.1091H60.338V0.919922Z" fill="white"/>
</mask>
<g mask="url(#mask0_0_818)">
<path d="M12.9286 15.0627V30.9199C15.9286 29.9199 23.3 29.7199 28.7857 36.9199C30.0714 39.6342 32.1286 45.9199 30.0714 49.3485L36.0714 52.777V27.0627L12.9286 15.0627Z" fill="#FDC040"/>
<path d="M59.7387 13.7214L36.6865 1.06324C36.3402 0.873126 35.9202 0.873126 35.5739 1.06324L26.8851 5.83416C26.7018 5.88248 26.5306 5.9746 26.3888 6.10691L12.5221 13.7214C12.1524 13.9242 11.9225 14.3125 11.9225 14.7348V30.0442C9.58333 30.7757 7.43965 32.0658 5.65728 33.8487C1.01144 38.4941 -0.173043 45.5793 2.70983 51.4792C2.98981 52.0527 3.68208 52.2907 4.25558 52.0103C4.82953 51.7298 5.06707 51.0376 4.78709 50.4641C2.33773 45.4511 3.34429 39.4311 7.29199 35.4834C9.76075 33.0146 13.0428 31.6549 16.534 31.6549C20.0251 31.6549 23.3072 33.0146 25.776 35.4834C28.2443 37.9518 29.604 41.2338 29.604 44.725C29.604 48.2161 28.2443 51.4982 25.7755 53.9669C21.8279 57.9146 15.8078 58.9212 10.7949 56.4719C10.2214 56.1914 9.52907 56.4294 9.24913 57.0029C8.9687 57.5769 9.20627 58.2691 9.78021 58.5491C11.9292 59.5995 14.235 60.1098 16.524 60.1098C20.5174 60.1093 24.4574 58.555 27.4107 55.6017C28.765 54.2474 29.8352 52.6849 30.5925 50.9865L35.5739 53.7217C35.7473 53.817 35.9388 53.8644 36.1302 53.8644C36.3216 53.8644 36.5136 53.817 36.6865 53.7217L59.7387 41.064C60.1086 40.8608 60.3384 40.4724 60.3384 40.0506V32.0166C60.3384 31.3781 59.8209 30.8606 59.1823 30.8606C58.5438 30.8606 58.0263 31.3781 58.0263 32.0166V39.3666L37.2899 50.7531V28.0748L44.1336 24.3168V30.274C44.1336 30.6832 44.3494 31.0615 44.7012 31.2693C44.8827 31.3764 45.0859 31.43 45.2896 31.43C45.4811 31.43 45.673 31.3826 45.8468 31.2869L50.7866 28.5679C51.156 28.3647 51.385 27.9768 51.385 27.5555V20.3348L58.0263 16.6883V22.7687C58.0263 23.4073 58.5438 23.9249 59.1823 23.9249C59.8209 23.9249 60.3384 23.4073 60.3384 22.7687V14.7348C60.3384 14.313 60.1086 13.9242 59.7387 13.7214ZM36.1302 3.39519L56.7804 14.7348L50.2664 18.3117L29.6162 6.97214L36.1302 3.39519ZM36.1302 26.0739L15.48 14.7348L22.2329 11.0264L42.8836 22.3656L36.1302 26.0739ZM45.285 21.0469L24.6348 9.70778L27.2142 8.2912L47.8649 19.6303L45.285 21.0469ZM27.4107 33.8487C24.5052 30.9432 20.6424 29.3433 16.534 29.3433C15.7568 29.3433 14.9892 29.4006 14.2345 29.5131V16.6883L34.9782 28.0789V50.7571L31.3778 48.7801C31.7323 47.475 31.9157 46.114 31.9157 44.725C31.9157 40.6165 30.3157 36.7537 27.4107 33.8487ZM49.0734 26.8722L46.4456 28.3187V23.0474L49.0734 21.6046V26.8722Z" fill="#3BB77E"/>
<path d="M59.1819 26.2302C58.878 26.2302 58.5795 26.354 58.3646 26.569C58.1496 26.7839 58.0259 27.082 58.0259 27.3863C58.0259 27.6902 58.1496 27.9882 58.3646 28.2032C58.5795 28.4186 58.878 28.5419 59.1819 28.5419C59.4858 28.5419 59.7843 28.4186 59.9993 28.2032C60.2142 27.9882 60.338 27.6902 60.338 27.3863C60.338 27.082 60.2142 26.7839 59.9993 26.569C59.7843 26.354 59.4858 26.2302 59.1819 26.2302Z" fill="#3BB77E"/>
<path d="M12.6463 45.8803C12.9421 45.8803 13.2384 45.7674 13.4637 45.5421C13.9153 45.0904 13.9153 44.3584 13.4637 43.9069L12.6631 43.1058H19.4954C21.1527 43.1058 22.5011 44.4542 22.5011 46.1115C22.5011 47.7688 21.1527 49.1172 19.4954 49.1172H15.447C14.8085 49.1172 14.2909 49.6347 14.2909 50.2732C14.2909 50.9113 14.8085 51.4288 15.447 51.4288H19.4954C22.4275 51.4288 24.8132 49.0436 24.8132 46.1115C24.8132 43.1794 22.4275 40.7942 19.4954 40.7942H12.6631L13.4637 39.993C13.9153 39.5415 13.9153 38.8095 13.4637 38.3579C13.0125 37.9067 12.2805 37.9067 11.829 38.3579L9.05447 41.1324C8.60334 41.584 8.60334 42.316 9.05447 42.7676L11.829 45.5416C12.0547 45.7674 12.3505 45.8803 12.6463 45.8803Z" fill="#3BB77E"/>
<path d="M6.47506 55.9415C6.14631 55.9415 5.81981 55.8016 5.59177 55.5301L5.58952 55.5275C5.17858 55.0388 5.2418 54.31 5.73041 53.8991C6.21901 53.4876 6.94831 53.5509 7.35925 54.0395C7.76973 54.5285 7.70787 55.2587 7.21925 55.6697C7.00205 55.8521 6.73787 55.9415 6.47506 55.9415Z" fill="#3BB77E"/>
</g>
</g>
</g>
</g>
<defs>
<clipPath id="clip0_0_818">
<rect width="60" height="60" fill="white" transform="translate(0.5 0.919922)"/>
</clipPath>
<clipPath id="clip1_0_818">
<rect width="60" height="60" fill="white" transform="translate(0.5 0.919922)"/>
</clipPath>
<clipPath id="clip2_0_818">
<rect width="60" height="60" fill="white" transform="translate(0.5 0.919922)"/>
</clipPath>
</defs>
</svg>
